<?xml version="1.0" encoding="UTF-8" standalone="no"?>
<svg 
  version="1.1" 
  xmlns="http://www.w3.org/2000/svg" 
  xmlns:xlink="http://www.w3.org/1999/xlink" 
  xmlns:svg="http://www.w3.org/2000/svg"
  xmlns:rdf="http://www.w3.org/1999/02/22-rdf-syntax-ns#"
  xmlns:cc="http://creativecommons.org/ns#"
  xmlns:dc="http://purl.org/dc/elements/1.1/"
  viewBox="0 0 512 512"
  width="512"
  height="512"
>
<style>svg {background-color: white; }</style>"
<metadata id="metadata1">
Created by svgstud.io and licensed under CC-BY-SA 4.0 license. Please attribute svgstud.io.
</metadata>
<metadata id="metadata2">
<rdf:RDF>
<cc:Work
    rdf:about="">
    <cc:license
    rdf:resource="http://creativecommons.org/licenses/by-sa/4.0/" />
    <dc:creator>
        <cc:Agent>
            <dc:title>svgstud.io</dc:title>
        </cc:Agent>
    </dc:creator>
</cc:Work>
<cc:License
    rdf:about="http://creativecommons.org/licenses/by-sa/4.0/">
    <cc:permits
    rdf:resource="http://creativecommons.org/ns#Reproduction" />
    <cc:permits
    rdf:resource="http://creativecommons.org/ns#Distribution" />
    <cc:requires
    rdf:resource="http://creativecommons.org/ns#Notice" />
    <cc:requires
    rdf:resource="http://creativecommons.org/ns#Attribution" />
    <cc:permits
    rdf:resource="http://creativecommons.org/ns#DerivativeWorks" />
    <cc:requires
    rdf:resource="http://creativecommons.org/ns#ShareAlike" />
</cc:License>
</rdf:RDF>
</metadata>
<metadata id="uid">
7b50387275843acf5ce049536b4249db12245e2e55c5ebaa5e7de8a01ff69ae7
</metadata>
<path stroke="none" fill="black" fill-rule="evenodd" d="M366.50,449.85C359.46,449.86 353.70,449.31 350.50,448.33C347.75,447.49 344.88,446.30 344.13,445.68C343.12,444.85 342.92,443.05 343.36,438.78C343.70,435.61 344.67,431.33 345.53,429.27C346.39,427.21 348.05,424.51 349.22,423.27C351.34,421.01 351.34,421.01 347.50,417.69C343.66,414.36 343.66,414.36 344.97,406.66C345.83,401.62 346.10,394.65 345.75,386.50C345.27,375.27 344.94,373.58 342.49,369.39C340.09,365.30 339.86,364.15 340.51,359.63C340.91,356.81 341.28,352.48 341.33,350.00C341.39,347.20 340.18,342.11 338.12,336.50C336.30,331.55 334.44,326.54 333.98,325.37C333.21,323.39 332.80,323.30 328.32,324.23C325.67,324.79 318.10,325.24 311.50,325.26C304.83,325.27 295.50,324.56 290.50,323.67C285.55,322.80 278.89,321.18 275.70,320.08C271.43,318.60 269.81,318.40 269.53,319.29C269.32,319.95 268.60,322.30 267.93,324.50C267.26,326.70 264.65,332.10 262.14,336.50C259.64,340.90 255.20,348.51 252.29,353.40C249.19,358.62 247.00,363.49 247.00,365.18C247.00,366.76 248.30,370.63 249.90,373.78C251.49,376.93 255.55,383.35 258.90,388.06C262.26,392.77 267.48,398.76 270.50,401.37C275.40,405.60 276.00,406.54 276.00,409.99C276.00,413.43 276.47,414.19 280.19,416.68C282.50,418.23 285.25,420.97 286.30,422.77C287.35,424.57 289.06,429.30 290.09,433.27C291.12,437.25 291.97,441.44 291.98,442.59C291.99,443.90 290.97,445.16 289.25,445.97C287.74,446.68 282.23,447.48 277.00,447.75C271.77,448.02 264.13,447.71 260.00,447.07C255.88,446.43 251.43,445.20 250.13,444.35C248.00,442.96 247.81,442.27 248.32,437.96C248.63,435.31 249.81,431.32 250.94,429.11C252.08,426.89 253.00,424.66 253.00,424.15C253.00,423.64 251.86,422.93 250.47,422.58C249.09,422.23 247.06,421.06 245.97,419.97C244.48,418.48 244.00,416.64 244.00,412.46C244.00,408.77 243.28,405.51 241.85,402.71C240.67,400.39 237.10,394.61 233.90,389.86C230.71,385.11 225.90,378.58 223.21,375.35C220.53,372.12 217.80,368.50 217.16,367.31C216.52,366.11 216.00,363.71 216.00,361.97C216.00,359.67 216.92,357.93 219.35,355.65C221.19,353.92 223.84,351.73 225.24,350.78C226.64,349.84 228.74,347.11 229.90,344.72C231.08,342.27 231.99,338.42 231.99,335.93C231.98,333.50 231.70,330.47 231.36,329.22C230.77,327.01 230.67,326.99 228.19,328.61C226.78,329.54 220.11,334.74 213.37,340.18C206.63,345.63 199.96,351.44 198.56,353.12C197.15,354.79 196.00,357.27 196.00,358.63C196.00,359.99 195.33,362.40 194.51,363.99C193.68,365.58 190.76,368.14 188.00,369.69C184.51,371.65 182.70,373.41 182.04,375.50C181.51,377.15 180.56,382.53 179.92,387.46C179.00,394.53 179.03,397.86 180.05,403.28C181.09,408.80 181.10,410.82 180.10,413.60C178.92,416.86 179.03,417.27 181.82,420.45C183.66,422.55 185.24,425.87 185.94,429.16C186.57,432.08 187.34,436.97 187.66,440.02C188.22,445.39 188.14,445.61 185.37,446.92C183.79,447.66 178.20,448.48 172.95,448.76C167.65,449.03 160.27,448.72 156.36,448.06C152.49,447.41 147.90,446.01 146.16,444.95C143.78,443.50 143.00,442.31 143.00,440.12C143.00,438.52 143.95,434.13 145.11,430.37C146.61,425.53 148.23,422.57 150.65,420.29C154.07,417.07 154.07,417.07 152.03,415.03C150.85,413.85 150.00,411.68 150.00,409.84C150.00,408.10 151.12,404.77 152.48,402.44C153.84,400.12 156.10,393.78 157.50,388.36C158.90,382.94 160.32,375.72 160.66,372.32C161.11,367.77 160.85,365.07 159.64,362.05C158.74,359.80 158.00,356.27 158.00,354.21C158.00,351.89 158.92,349.10 160.43,346.90C161.96,344.63 165.35,342.01 169.68,339.74C175.43,336.71 177.05,335.24 180.00,330.39C181.93,327.22 184.06,323.31 184.75,321.70C185.44,320.09 186.00,316.68 186.00,314.14C185.99,311.33 184.76,306.34 182.87,301.50C180.20,294.66 179.74,292.19 179.74,284.47C179.73,279.50 180.06,274.38 180.47,273.09C181.21,270.77 181.14,270.75 175.10,271.19C169.78,271.57 168.51,272.08 165.45,275.05C163.50,276.93 160.70,280.96 159.21,283.99C156.51,289.48 156.50,289.56 156.50,312.00C156.50,334.50 156.50,334.50 150.16,349.00C144.10,362.85 143.84,363.77 144.39,369.50C144.84,374.29 144.61,375.94 143.23,377.68C142.28,378.88 137.90,381.98 133.50,384.56C129.10,387.15 123.73,389.89 121.57,390.65C119.41,391.41 117.27,391.67 116.81,391.21C116.35,390.75 118.03,387.74 120.53,384.52C123.03,381.29 124.84,378.02 124.54,377.25C124.24,376.47 124.00,375.65 124.00,375.42C124.00,375.19 123.28,375.00 122.39,375.00C121.50,375.00 118.22,377.65 115.10,380.89C111.21,384.93 108.17,387.14 105.46,387.89C103.28,388.49 99.34,388.99 96.69,388.99C92.66,389.00 91.45,388.53 89.19,386.09C87.66,384.43 84.57,382.66 82.02,381.99C79.55,381.33 75.28,379.67 72.52,378.29C69.76,376.91 66.26,374.62 64.75,373.21C63.24,371.79 62.00,369.84 62.00,368.87C62.00,367.91 62.42,366.86 62.94,366.54C63.45,366.22 67.16,366.87 71.17,367.98C75.18,369.09 80.94,369.99 83.98,369.99C87.02,369.98 91.75,369.37 94.50,368.64C97.25,367.90 102.20,365.93 105.50,364.26C108.80,362.58 115.55,357.98 120.50,354.04C125.45,350.09 131.20,344.98 133.27,342.68C135.34,340.38 138.20,336.84 139.62,334.80C141.04,332.77 142.81,329.39 143.56,327.30C144.30,325.21 144.93,321.19 144.96,318.36C144.98,315.53 144.28,309.74 143.40,305.49C142.43,300.77 142.06,296.08 142.46,293.40C142.82,291.00 144.68,285.90 146.60,282.07C148.84,277.59 151.89,273.49 155.16,270.55C158.58,267.47 162.01,265.47 165.71,264.40C169.83,263.20 172.09,263.05 174.84,263.78C176.85,264.32 179.23,265.07 180.12,265.44C181.35,265.95 182.13,265.13 183.37,262.04C184.27,259.79 185.00,257.81 185.00,257.62C185.00,257.43 182.17,257.05 178.72,256.77C175.06,256.48 170.59,255.32 168.01,254.01C164.89,252.41 161.80,251.74 157.54,251.72C154.02,251.70 149.83,252.40 147.50,253.40C145.30,254.34 142.22,256.32 140.66,257.80C139.10,259.29 136.96,262.17 135.91,264.21C134.86,266.25 134.00,269.39 134.00,271.18C134.00,274.44 134.00,274.44 139.75,268.77C142.91,265.65 147.53,262.19 150.00,261.07C152.47,259.96 155.37,259.03 156.44,259.02C157.97,259.00 157.66,259.54 154.99,261.51C153.12,262.89 149.63,266.38 147.24,269.26C144.85,272.14 141.33,277.73 139.41,281.69C137.49,285.64 135.65,291.15 135.32,293.93C134.99,296.71 135.25,302.27 135.90,306.28C136.94,312.73 136.86,314.27 135.19,319.64C134.15,322.98 131.65,328.19 129.64,331.22C127.63,334.25 122.05,340.52 117.24,345.15C112.43,349.78 105.80,355.20 102.50,357.19C99.20,359.19 93.70,361.76 90.28,362.91C86.86,364.06 82.47,365.00 80.53,365.00C77.00,365.00 77.00,365.00 77.00,360.00C77.00,355.05 77.03,355.00 80.17,355.00C81.91,355.00 86.16,354.51 89.60,353.91C93.05,353.31 96.62,352.27 97.54,351.59C98.97,350.55 98.11,350.05 91.68,348.18C87.53,346.98 82.76,344.83 81.07,343.41C79.14,341.78 78.00,339.89 78.00,338.30C78.00,335.90 78.19,335.82 81.75,336.62C83.81,337.08 87.53,337.45 90.00,337.44C92.47,337.43 96.30,336.56 98.50,335.51C100.70,334.45 105.25,330.86 108.62,327.52C111.99,324.18 115.88,319.19 117.28,316.43C118.68,313.68 120.31,308.77 120.91,305.53C121.51,302.28 122.00,296.14 122.00,291.87C122.00,287.59 122.51,281.71 123.13,278.80C123.75,275.88 125.31,271.13 126.58,268.23C127.89,265.28 131.23,260.65 134.20,257.69C137.12,254.79 141.75,251.37 144.50,250.08C147.26,248.79 152.27,247.52 155.70,247.24C160.62,246.84 163.72,247.29 170.70,249.45C175.54,250.94 180.94,253.00 182.71,254.02C185.91,255.88 185.91,255.88 187.94,252.60C189.05,250.80 192.45,246.97 195.50,244.09C198.84,240.93 203.91,237.53 208.27,235.53C212.25,233.70 218.88,231.15 223.00,229.86C229.88,227.71 231.99,227.53 248.50,227.78C258.40,227.92 269.54,227.54 273.25,226.93C276.96,226.32 280.00,225.45 280.00,225.01C280.00,224.56 275.16,223.81 269.25,223.35C263.34,222.88 253.10,222.57 246.50,222.65C238.02,222.76 232.26,223.40 226.86,224.83C222.66,225.95 215.93,228.52 211.90,230.55C205.52,233.76 204.17,234.11 201.53,233.22C199.86,232.65 196.70,231.89 194.50,231.52C192.30,231.15 189.49,230.20 188.25,229.40C187.01,228.61 185.99,226.95 185.98,225.73C185.98,224.50 185.64,222.99 185.23,222.37C184.83,221.74 181.69,220.51 178.25,219.64C174.81,218.76 170.23,217.14 168.07,216.04C165.91,214.93 163.81,213.50 163.41,212.85C163.01,212.20 162.41,210.33 162.07,208.70C161.54,206.09 160.81,205.55 156.19,204.37C153.29,203.63 148.68,202.06 145.95,200.88C143.22,199.71 139.64,197.22 138.00,195.35C136.32,193.43 134.75,190.27 134.40,188.09C133.85,184.63 133.26,184.00 128.64,181.89C125.81,180.59 121.25,178.11 118.50,176.36C115.75,174.62 111.87,171.46 109.88,169.35C107.88,167.23 103.78,162.12 100.77,158.00C97.75,153.88 91.44,147.01 86.75,142.75C82.05,138.49 76.76,132.74 74.98,129.97C73.12,127.07 71.54,123.10 71.26,120.62C70.90,117.42 71.15,116.16 72.24,115.74C73.05,115.43 78.61,116.88 84.61,118.95C90.62,121.03 98.39,124.18 101.90,125.95C105.40,127.72 113.01,130.24 118.79,131.54C124.58,132.85 133.14,134.23 137.81,134.61C143.75,135.09 146.10,134.98 145.64,134.23C145.28,133.64 141.50,132.00 137.24,130.59C132.98,129.19 121.40,125.83 111.50,123.14C101.60,120.46 90.42,116.86 86.65,115.15C82.89,113.44 76.96,110.01 73.48,107.52C69.48,104.67 64.87,99.98 60.93,94.76C57.50,90.22 54.13,85.15 53.44,83.50C52.75,81.85 51.87,78.81 51.48,76.75C50.97,74.02 51.22,72.31 52.41,70.50C53.39,69.00 54.99,68.00 56.42,68.00C57.72,68.00 64.54,70.72 71.58,74.04C78.62,77.36 90.48,82.25 97.94,84.92C105.40,87.58 117.12,91.12 124.00,92.78C130.88,94.44 143.68,97.47 152.45,99.52C161.22,101.57 173.12,104.78 178.88,106.65C184.64,108.51 193.54,112.03 198.66,114.45C203.78,116.87 211.44,121.25 215.69,124.18C219.93,127.11 226.40,132.49 230.06,136.14C233.72,139.80 237.68,144.78 238.86,147.21C240.04,149.64 240.99,153.40 240.98,155.57C240.96,157.73 240.04,162.88 238.93,167.00C237.82,171.12 236.89,177.69 236.86,181.59C236.82,186.81 237.40,190.05 239.05,193.89C240.87,198.13 243.20,200.73 251.40,207.70C256.95,212.43 262.98,216.92 264.78,217.67C266.59,218.43 271.76,219.76 276.28,220.63C281.55,221.64 287.40,222.04 292.58,221.73C297.53,221.43 302.41,220.47 305.17,219.25C307.65,218.15 311.31,215.63 313.30,213.63C315.29,211.64 317.37,208.32 317.93,206.26C318.48,204.19 319.63,197.55 320.48,191.50C321.32,185.45 322.21,179.04 322.44,177.25C322.87,174.00 322.87,174.00 316.00,174.00C312.22,174.00 307.86,174.48 306.32,175.06C304.77,175.65 302.15,177.42 300.50,179.01C298.85,180.60 295.83,182.60 293.78,183.45C291.74,184.30 288.36,184.98 286.28,184.96C284.20,184.95 279.60,183.93 276.06,182.71C270.62,180.84 269.48,180.03 268.67,177.50C268.15,175.85 265.82,172.45 263.51,169.95C260.93,167.17 259.04,164.01 258.63,161.83C258.26,159.86 258.45,156.95 259.05,155.37C259.65,153.79 263.37,149.35 267.32,145.50C271.27,141.65 275.94,136.03 277.70,133.00C279.46,129.97 281.16,126.82 281.47,125.99C281.82,125.05 281.18,124.12 279.76,123.49C278.18,122.80 277.40,121.49 277.18,119.11C276.89,116.10 277.49,115.12 282.43,110.53C285.49,107.67 288.00,104.93 287.99,104.42C287.99,103.91 289.40,102.33 291.13,100.91C294.29,98.32 294.29,98.32 291.64,94.43C289.90,91.86 289.00,89.20 289.00,86.64C289.00,84.43 289.90,81.27 291.08,79.37C292.54,77.00 293.90,76.00 295.66,76.00C297.14,76.00 299.03,77.07 300.33,78.65C301.52,80.10 303.70,82.58 305.17,84.15C306.99,86.09 308.83,87.00 310.92,87.00C312.62,87.00 314.00,86.61 314.00,86.14C314.00,85.66 312.09,84.00 309.75,82.44C307.41,80.88 304.94,78.93 304.25,78.11C303.56,77.29 303.00,75.13 303.00,73.31C303.00,71.49 303.14,70.00 303.31,70.00C303.48,70.00 305.95,72.25 308.81,75.00C311.66,77.75 314.41,80.00 314.92,80.00C315.43,80.00 317.18,78.88 318.82,77.50C320.76,75.86 323.01,75.00 325.33,75.00C328.19,75.00 330.08,76.06 335.18,80.50C339.50,84.27 342.34,86.00 344.21,86.00C345.70,86.00 349.30,86.89 352.21,87.98C355.12,89.07 359.15,91.44 361.16,93.23C363.17,95.03 365.52,97.91 366.37,99.63C367.23,101.36 368.98,103.03 370.26,103.35C371.54,103.67 375.49,105.80 379.04,108.07C382.60,110.34 386.74,113.37 388.25,114.79C389.76,116.21 391.00,118.41 391.00,119.69C391.00,120.96 390.68,122.00 390.29,122.00C389.90,122.00 387.09,120.26 384.04,118.14C380.99,116.02 376.81,113.73 374.74,113.06C372.67,112.39 368.87,111.99 366.29,112.17C361.59,112.50 361.59,112.50 359.73,107.50C358.70,104.75 356.88,101.43 355.68,100.12C354.48,98.81 351.25,96.67 348.50,95.38C345.75,94.08 342.94,93.02 342.25,93.01C341.56,93.00 341.00,93.60 341.00,94.33C341.00,95.05 343.03,98.27 345.52,101.47C348.00,104.67 350.24,108.23 350.50,109.39C350.76,110.55 351.09,113.51 351.24,115.97C351.48,120.14 351.73,120.50 355.00,121.42C357.36,122.08 361.65,125.53 368.15,131.95C377.14,140.85 378.20,142.34 383.85,154.00C387.18,160.88 392.01,172.80 394.58,180.50C398.96,193.60 399.26,195.14 399.18,204.50C399.14,210.00 398.41,220.35 397.56,227.50C396.71,234.65 396.01,242.33 396.01,244.58C396.00,246.82 397.17,251.53 398.59,255.04C400.82,260.52 401.13,262.56 400.80,269.46C400.45,276.62 399.83,278.73 395.20,288.72C392.34,294.89 390.00,300.21 390.00,300.54C390.00,300.86 394.68,303.32 400.40,306.00C406.13,308.68 412.65,311.35 414.90,311.94C417.16,312.52 420.81,313.47 423.01,314.04C425.22,314.62 428.62,316.48 430.56,318.19C432.51,319.90 434.80,322.65 435.65,324.30C436.86,326.63 437.05,328.93 436.52,334.62C435.89,341.31 436.10,342.65 438.92,349.94C440.86,354.98 442.00,359.75 442.00,362.86C442.00,367.05 441.52,368.29 438.77,371.14C435.72,374.31 435.54,374.92 435.52,382.00C435.50,388.64 435.12,390.15 432.22,395.18C430.41,398.30 427.64,402.24 426.07,403.93C423.61,406.56 422.48,407.00 418.25,407.00C415.53,407.00 411.77,406.48 409.90,405.84C408.03,405.21 404.85,403.40 402.83,401.82C400.81,400.25 398.22,397.02 397.08,394.66C395.82,392.06 395.00,388.39 395.00,385.33C395.00,381.74 395.66,379.32 397.29,376.90C398.55,375.03 401.00,372.60 402.75,371.50C405.43,369.81 405.93,368.88 405.97,365.50C405.99,363.30 406.90,360.04 407.99,358.25C409.08,356.46 410.42,355.00 410.96,355.00C411.51,355.00 412.60,353.99 413.38,352.75C414.16,351.51 415.11,349.04 415.48,347.26C416.07,344.41 415.85,343.89 413.63,343.05C411.83,342.37 410.92,341.08 410.45,338.58C410.08,336.59 409.08,334.86 408.15,334.60C407.24,334.34 401.77,333.19 396.00,332.05C390.23,330.91 382.57,329.08 379.00,327.99C375.43,326.91 371.97,326.01 371.32,326.01C370.67,326.00 369.68,328.36 369.11,331.25C368.55,334.14 367.79,339.05 367.44,342.17C366.93,346.59 367.26,349.19 368.89,353.92C370.05,357.27 371.00,361.29 371.00,362.85C371.00,364.44 369.65,367.56 367.97,369.88C364.94,374.07 364.94,374.07 367.00,386.76C368.14,393.74 369.72,400.36 370.53,401.48C371.33,402.59 372.98,404.74 374.20,406.26C376.14,408.69 376.28,409.50 375.37,412.91C374.37,416.66 374.47,416.93 378.13,420.38C381.02,423.10 382.46,425.69 384.15,431.23C385.38,435.23 386.40,440.52 386.44,443.00C386.50,447.50 386.50,447.50 382.00,448.67C379.52,449.31 372.55,449.84 366.50,449.85zM365.10,431.85C367.08,431.93 370.08,431.52 371.77,430.93C373.46,430.34 375.09,429.21 375.39,428.42C375.70,427.63 375.54,425.92 375.04,424.61C374.53,423.27 372.75,421.76 370.92,421.12C369.15,420.51 365.84,420.00 363.57,420.00C361.30,420.00 358.50,420.66 357.34,421.48C356.18,422.29 354.93,424.13 354.57,425.57C354.20,427.04 354.41,428.78 355.03,429.54C355.64,430.28 357.35,431.07 358.82,431.29C360.30,431.52 363.12,431.77 365.10,431.85zM169.03,430.92C171.62,430.97 174.50,430.34 175.78,429.44C177.00,428.59 178.00,426.99 178.00,425.90C178.00,424.80 176.90,422.80 175.55,421.45C173.41,419.32 172.18,419.00 166.17,419.00C161.29,419.00 158.88,419.44 158.02,420.47C157.35,421.28 156.73,423.39 156.65,425.17C156.51,428.10 156.86,428.50 160.50,429.62C162.70,430.29 166.54,430.88 169.03,430.92zM272.71,430.86C278.03,430.98 279.09,430.70 280.03,428.95C280.82,427.47 280.82,425.99 280.03,423.60C279.41,421.70 277.87,419.80 276.42,419.15C275.04,418.52 272.33,418.00 270.40,418.00C268.48,418.00 265.60,418.67 264.02,419.49C262.44,420.31 260.87,421.82 260.55,422.86C260.22,423.89 260.39,425.89 260.92,427.29C261.47,428.74 262.89,430.04 264.20,430.29C265.46,430.53 269.30,430.79 272.71,430.86zM259.52,412.68C263.08,412.35 266.92,411.58 268.05,410.97C269.48,410.21 270.02,409.08 269.81,407.31C269.57,405.32 268.54,404.40 265.11,403.13C261.15,401.66 260.03,400.40 253.44,390.00C249.42,383.68 245.41,377.49 244.52,376.25C243.37,374.65 241.89,374.00 239.39,374.00C236.20,374.00 235.93,374.21 236.54,376.25C236.91,377.49 239.93,382.77 243.25,388.00C246.57,393.23 250.39,398.70 251.74,400.16C254.00,402.60 254.10,403.09 252.94,406.28C252.25,408.19 251.99,410.54 252.37,411.52C252.96,413.05 253.92,413.20 259.52,412.68zM359.96,413.00C364.26,413.00 366.39,412.49 368.14,411.05C370.50,409.09 370.50,409.09 366.41,405.30C362.63,401.80 362.22,400.90 361.17,393.84C360.55,389.62 359.74,383.54 359.37,380.34C359.00,377.13 358.20,374.17 357.60,373.77C356.99,373.36 355.49,373.02 354.25,373.02C353.01,373.01 352.00,373.36 352.00,373.80C352.00,374.24 352.47,380.43 353.04,387.56C353.92,398.56 353.84,401.19 352.54,404.89C351.69,407.29 351.00,409.39 351.00,409.55C351.00,409.72 351.71,410.56 352.57,411.43C353.64,412.50 356.01,413.00 359.96,413.00zM168.05,412.00C170.55,412.00 173.14,411.46 173.80,410.80C174.46,410.14 175.00,408.63 175.00,407.45C175.00,406.28 174.18,404.57 173.19,403.67C171.49,402.14 171.46,401.29 172.60,391.21C173.28,385.26 174.26,378.08 174.77,375.26C175.28,372.44 175.41,369.67 175.06,369.09C174.70,368.52 173.31,367.93 171.97,367.77C169.58,367.51 169.44,367.90 166.01,384.25C163.16,397.83 162.10,401.28 160.37,402.47C159.21,403.28 158.00,404.88 157.70,406.03C157.29,407.62 157.93,408.59 160.33,410.06C162.23,411.22 165.32,411.99 168.05,412.00zM411.02,395.00C411.48,395.00 412.13,394.15 412.46,393.11C412.79,392.07 414.15,390.05 415.48,388.61C417.52,386.41 418.77,386.00 423.33,386.00C426.65,386.00 429.19,385.48 429.87,384.66C430.48,383.92 430.69,383.02 430.32,382.66C429.96,382.30 428.38,382.00 426.80,382.00C425.23,382.00 422.46,381.38 420.65,380.63C418.85,379.87 415.90,377.40 414.10,375.13C412.30,372.86 410.00,371.00 408.98,371.00C407.97,371.00 406.21,372.31 405.07,373.90C403.93,375.50 403.00,378.02 403.00,379.49C403.00,380.97 404.61,385.06 406.59,388.59C408.56,392.11 410.55,395.00 411.02,395.00zM424.28,368.96C425.26,368.98 428.27,367.88 430.96,366.52C433.65,365.16 436.14,363.13 436.50,362.01C436.89,360.77 436.14,357.80 434.57,354.37C433.16,351.28 432.00,347.88 432.00,346.81C432.00,345.74 431.53,344.00 430.96,342.93C430.36,341.80 428.88,341.00 427.40,341.00C426.01,341.00 424.00,341.47 422.93,342.04C421.38,342.86 421.00,344.16 421.00,348.53C421.00,353.72 421.16,354.07 424.25,355.50C427.48,357.00 427.46,357.00 421.00,356.65C417.43,356.46 413.94,356.50 413.25,356.73C412.56,356.97 412.00,358.41 412.00,359.93C412.00,361.45 412.80,363.41 413.78,364.30C414.76,365.19 417.12,366.59 419.03,367.42C420.94,368.24 423.30,368.94 424.28,368.96zM238.86,367.97C239.06,367.99 238.94,366.49 238.59,364.64C238.10,362.02 238.64,359.99 241.03,355.45C242.73,352.21 243.96,348.48 243.80,347.07C243.63,345.65 242.76,344.38 241.84,344.20C240.80,344.01 239.05,345.52 237.19,348.22C235.18,351.15 232.55,353.34 229.10,354.95C225.95,356.43 224.00,357.98 224.00,359.02C224.00,359.94 224.90,361.50 226.00,362.50C227.10,363.49 230.36,365.12 233.25,366.12C236.14,367.12 238.66,367.95 238.86,367.97zM355.25,363.99C357.59,363.98 360.62,363.40 361.99,362.71C363.36,362.02 364.64,360.64 364.83,359.65C365.02,358.65 364.66,356.59 364.02,355.05C363.39,353.52 361.75,351.75 360.39,351.13C359.02,350.51 357.05,350.00 356.00,350.00C354.95,350.00 353.00,350.50 351.66,351.11C350.32,351.72 348.72,353.32 348.11,354.66C347.50,356.00 347.00,357.75 347.00,358.55C347.00,359.35 347.90,360.90 349.00,362.00C350.38,363.38 352.32,364.00 355.25,363.99zM187.75,358.24C188.44,357.99 189.00,356.82 188.99,355.64C188.99,354.46 188.20,352.20 187.24,350.62C185.49,347.74 185.49,347.74 191.86,341.12C195.36,337.48 198.85,333.57 199.61,332.43C200.80,330.65 200.78,329.70 199.43,325.74C198.56,323.20 197.26,320.63 196.54,320.03C195.50,319.17 194.43,320.38 191.57,325.58C189.56,329.23 186.53,333.95 184.83,336.06C183.14,338.17 181.75,340.98 181.75,342.31C181.75,344.62 181.58,344.68 177.88,343.74C175.08,343.03 173.16,343.10 170.99,344.01C169.18,344.75 167.73,346.24 167.35,347.73C166.98,349.20 167.41,351.64 168.40,353.71C169.91,356.89 170.36,357.16 173.28,356.63C175.05,356.30 178.75,356.64 181.50,357.36C184.25,358.09 187.06,358.48 187.75,358.24zM356.05,347.00C358.22,347.00 360.02,346.66 360.05,346.25C360.08,345.84 360.32,341.90 360.59,337.50C360.87,333.10 361.70,327.48 362.44,325.00C363.19,322.52 364.55,315.94 365.48,310.36C367.04,301.02 367.04,299.98 365.56,297.11C364.67,295.39 362.17,292.82 360.00,291.38C356.17,288.84 355.85,288.80 349.61,289.98C346.08,290.65 342.27,290.90 341.15,290.55C340.04,290.19 337.76,288.36 336.10,286.47C334.44,284.57 332.65,281.33 332.13,279.26C331.60,277.19 330.96,271.56 330.71,266.75C330.36,260.11 330.55,258.00 331.52,258.00C332.21,258.00 335.22,260.63 338.20,263.85C343.58,269.66 343.65,269.70 350.35,270.24C354.59,270.58 357.78,271.39 358.93,272.44C359.94,273.35 361.53,276.10 362.47,278.55C363.85,282.17 364.63,283.00 366.65,283.00C368.01,283.00 370.00,282.54 371.06,281.97C372.12,281.40 373.85,279.26 374.92,277.22C376.85,273.50 376.85,273.50 378.44,277.26C379.32,279.32 380.32,283.74 380.67,287.07C381.19,292.11 381.52,292.91 382.63,291.80C383.36,291.07 384.47,287.11 385.10,282.99C386.16,276.00 386.08,275.10 383.88,269.50C381.89,264.42 381.60,262.27 382.00,255.50C382.26,251.10 382.47,235.80 382.46,221.50C382.44,200.28 382.11,193.97 380.64,187.18C379.65,182.61 377.47,174.74 375.80,169.68C374.12,164.63 371.28,157.57 369.48,154.00C367.68,150.43 363.48,143.36 360.16,138.30C356.62,132.93 352.91,128.49 351.23,127.62C349.65,126.80 347.84,125.51 347.20,124.74C346.57,123.98 345.75,120.12 345.38,116.18C345.01,112.23 344.53,109.00 344.32,109.00C344.10,109.00 342.20,109.88 340.10,110.95C336.28,112.90 336.28,112.90 330.89,109.42C327.92,107.51 323.70,105.48 321.50,104.91C319.30,104.35 316.72,103.65 315.77,103.38C314.74,103.08 313.00,103.90 311.52,105.39C310.13,106.78 309.00,108.51 309.00,109.25C309.00,110.06 306.87,111.03 303.57,111.73C300.58,112.35 296.98,113.62 295.57,114.55C293.96,115.60 293.00,117.15 293.00,118.70C293.00,120.05 291.49,123.04 289.65,125.33C287.80,127.62 284.20,132.59 281.65,136.37C279.09,140.14 277.00,143.59 277.00,144.02C277.00,144.45 275.55,145.31 273.77,145.93C271.99,146.55 269.07,148.48 267.27,150.23C265.21,152.22 264.00,154.37 264.00,156.02C264.00,157.47 265.01,159.57 266.25,160.70C267.49,161.83 269.48,163.25 270.67,163.87C271.86,164.48 274.21,164.71 275.90,164.37C277.58,164.03 279.47,163.14 280.10,162.38C281.03,161.26 280.67,161.00 278.18,161.00C276.17,161.00 274.59,160.25 273.60,158.85C272.52,157.29 272.37,156.17 273.08,154.85C273.78,153.54 275.20,153.00 277.91,153.00C280.20,153.00 282.29,153.64 283.07,154.58C284.10,155.82 284.12,156.57 283.19,158.07C282.54,159.12 282.00,160.20 282.00,160.49C282.00,160.77 283.10,161.00 284.44,161.00C285.78,161.00 287.15,161.44 287.49,161.98C287.82,162.52 287.61,163.87 287.01,164.98C286.42,166.09 283.73,168.12 281.03,169.48C278.34,170.85 275.88,172.39 275.56,172.91C275.23,173.43 275.84,174.13 276.91,174.47C277.98,174.81 280.48,174.41 282.46,173.58C284.45,172.75 288.64,169.63 291.79,166.64C294.93,163.66 299.30,160.48 301.50,159.59C303.70,158.69 307.11,156.11 309.07,153.85C312.55,149.83 312.73,149.76 316.17,150.89C318.11,151.53 320.44,151.77 321.35,151.42C322.64,150.92 323.00,151.40 323.02,153.64C323.02,155.21 323.43,157.13 323.92,157.90C324.53,158.87 325.89,159.12 328.41,158.71C330.39,158.39 333.35,157.18 334.97,156.02C336.59,154.87 338.94,152.49 340.18,150.74C342.07,148.09 342.51,145.95 342.84,137.78C343.06,132.40 343.55,128.00 343.94,128.00C344.33,128.00 345.54,129.01 346.63,130.25C347.73,131.49 349.15,133.75 349.80,135.29C350.46,136.82 351.27,140.42 351.60,143.29C351.95,146.23 351.70,150.46 351.03,153.00C350.38,155.47 348.76,159.18 347.43,161.23C346.09,163.28 345.00,165.19 345.00,165.48C345.00,165.77 346.27,166.00 347.83,166.00C350.55,166.00 350.79,166.41 353.85,176.25C355.61,181.89 357.71,190.32 358.53,195.00C359.35,199.68 360.69,208.89 361.51,215.47C362.33,222.05 363.00,229.59 363.00,232.22C363.00,234.85 362.66,236.99 362.25,236.98C361.84,236.97 359.70,235.95 357.50,234.70C355.30,233.46 352.94,231.27 352.25,229.84C351.57,228.41 349.67,219.47 348.02,209.97C346.38,200.47 344.10,189.29 342.96,185.12C341.82,180.95 339.96,176.05 338.83,174.22C337.58,172.21 336.13,171.03 335.14,171.23C333.90,171.48 333.52,172.64 333.60,176.03C333.65,178.49 334.22,185.42 334.85,191.42C335.48,197.43 336.00,205.53 336.00,209.42C336.01,215.61 336.39,217.07 339.00,221.00C340.65,223.47 341.99,225.84 342.00,226.26C342.00,226.68 340.31,226.32 338.25,225.46C336.19,224.60 331.29,221.89 327.36,219.45C323.44,217.00 319.74,215.00 319.15,215.00C318.56,215.00 317.58,215.91 316.99,217.02C316.39,218.13 316.15,219.43 316.44,219.91C316.74,220.39 321.60,223.37 327.24,226.55C332.88,229.72 341.50,234.57 346.40,237.32C351.29,240.07 356.80,243.64 358.65,245.26C361.36,247.64 362.00,248.94 362.00,252.04C362.00,254.16 361.53,256.17 360.95,256.53C360.37,256.89 357.56,256.04 354.70,254.64C351.84,253.24 346.80,249.83 343.50,247.08C340.20,244.32 334.13,239.46 330.00,236.28C325.88,233.10 320.64,228.54 318.36,226.14C314.31,221.88 314.13,221.80 310.67,222.94C308.72,223.59 306.08,224.93 304.81,225.92C303.54,226.91 301.57,228.02 300.43,228.37C299.30,228.73 293.00,230.18 286.43,231.59C279.87,233.00 272.48,234.59 270.00,235.11C266.78,235.79 261.53,235.58 251.54,234.40C243.57,233.45 234.51,232.98 230.41,233.29C225.14,233.68 221.25,234.75 215.72,237.30C211.58,239.22 206.08,242.72 203.51,245.10C200.93,247.48 197.66,251.69 196.25,254.46C194.38,258.12 193.55,261.57 193.22,267.04C192.84,273.30 193.15,275.47 195.00,279.79C196.23,282.64 199.03,286.60 201.21,288.57C203.39,290.54 205.40,291.93 205.68,291.66C205.95,291.38 205.69,288.00 205.09,284.14C204.49,280.28 204.01,274.28 204.03,270.81C204.05,264.50 204.05,264.50 206.78,267.76C208.61,269.96 210.37,271.02 212.18,271.01C214.37,271.00 215.51,269.92 218.49,265.02C220.48,261.74 222.55,258.78 223.08,258.45C223.66,258.09 223.84,259.92 223.53,263.18C223.25,266.11 222.32,275.48 221.45,284.00C220.58,292.52 219.66,300.54 219.40,301.81C219.02,303.67 218.51,303.98 216.72,303.41C215.50,303.02 210.94,300.74 206.60,298.34C202.25,295.93 198.50,294.17 198.25,294.42C198.00,294.67 198.90,297.26 200.26,300.19C201.61,303.11 204.59,307.61 206.88,310.18C209.25,312.84 212.60,315.37 214.64,316.05C216.62,316.70 220.24,317.01 222.69,316.73C225.77,316.38 228.08,315.34 230.17,313.36C231.83,311.79 234.29,308.33 235.65,305.67C237.00,303.02 238.36,298.74 238.67,296.16C239.02,293.19 238.42,287.67 237.03,280.99C235.42,273.31 235.01,268.90 235.49,264.54C235.85,261.27 236.77,257.10 237.52,255.29C238.28,253.48 239.29,252.00 239.76,252.00C240.24,252.00 241.95,253.41 243.56,255.13C245.18,256.86 249.13,260.23 252.35,262.62C255.78,265.19 260.93,267.83 264.85,269.04C268.51,270.17 275.77,271.35 281.00,271.65C287.73,272.04 292.67,271.74 297.95,270.61C302.05,269.74 305.96,268.46 306.64,267.76C307.32,267.07 308.71,264.25 309.72,261.50C311.51,256.65 311.68,256.50 315.53,256.50C319.50,256.50 319.50,256.50 319.36,262.00C319.28,265.02 318.89,272.47 318.48,278.54C317.88,287.39 318.06,290.68 319.35,295.12C320.23,298.16 321.91,301.51 323.09,302.57C325.23,304.50 325.23,304.50 324.97,297.00C324.84,292.88 324.80,288.38 324.90,287.00C325.07,284.50 325.07,284.50 327.59,287.50C328.98,289.15 331.16,292.52 332.43,295.00C333.71,297.48 335.97,303.55 337.47,308.50C338.97,313.45 340.88,318.28 341.73,319.23C342.57,320.18 343.70,320.68 344.24,320.35C344.82,319.99 344.93,317.20 344.52,313.38C344.15,309.87 344.21,307.00 344.67,307.01C345.13,307.01 347.23,307.49 349.34,308.08C352.62,308.99 353.52,309.89 355.54,314.32C356.84,317.17 358.21,321.41 358.58,323.75C359.26,328.00 359.26,328.00 354.29,328.00C351.57,328.00 349.08,328.25 348.78,328.56C348.47,328.86 348.80,331.45 349.51,334.31C350.22,337.16 351.09,341.19 351.45,343.25C352.06,346.84 352.26,347.00 356.05,347.00zM420.21,332.37C420.70,332.07 423.22,331.52 425.80,331.15C430.18,330.53 430.52,330.27 430.81,327.32C431.03,324.99 430.38,323.34 428.31,321.03C425.95,318.41 424.42,317.75 418.81,316.97C415.12,316.45 408.70,314.67 404.54,313.01C400.37,311.36 393.83,308.43 390.00,306.50C386.18,304.58 382.40,303.00 381.60,303.00C380.80,303.00 379.21,304.19 378.07,305.63C376.93,307.08 376.00,308.77 376.00,309.38C376.00,310.00 382.19,312.62 389.75,315.21C397.31,317.80 405.41,320.41 407.75,321.00C411.19,321.87 412.00,322.51 412.00,324.35C412.00,325.60 412.56,327.31 413.25,328.16C413.94,329.01 415.59,330.43 416.91,331.31C418.24,332.19 419.73,332.67 420.21,332.37zM242.82,316.61C244.01,315.56 246.38,312.52 248.10,309.84C250.65,305.86 251.00,304.70 249.99,303.49C249.31,302.67 248.44,302.00 248.06,302.00C247.67,302.00 246.10,305.04 244.57,308.75C243.03,312.46 241.53,316.18 241.22,317.00C240.82,318.08 241.26,317.98 242.82,316.61zM284.31,305.91C285.85,305.96 286.87,305.60 286.57,305.11C286.26,304.62 281.85,302.55 276.76,300.52C271.67,298.49 265.93,295.88 264.00,294.73C262.07,293.57 257.91,290.66 254.75,288.25C249.64,284.37 249.00,284.12 249.00,285.97C249.00,287.12 249.63,289.57 250.39,291.40C251.16,293.24 253.30,295.87 255.14,297.27C256.99,298.66 260.75,300.56 263.50,301.49C266.25,302.42 271.43,303.78 275.00,304.50C278.57,305.22 282.76,305.85 284.31,305.91zM198.38,226.00C201.27,226.00 205.97,225.31 208.82,224.46C211.91,223.54 214.00,222.35 214.00,221.50C214.00,220.72 213.44,219.60 212.75,219.00C212.06,218.41 210.01,216.86 208.18,215.55C205.45,213.61 204.30,213.34 201.77,214.07C200.07,214.55 197.58,215.98 196.23,217.23C194.89,218.48 193.38,220.55 192.89,221.83C192.39,223.12 192.24,224.58 192.55,225.08C192.86,225.59 195.48,226.00 198.38,226.00zM230.75,219.26C235.56,218.98 240.10,218.43 240.82,218.04C241.78,217.53 241.11,216.43 238.42,214.07C235.09,211.14 234.26,210.86 230.60,211.45C228.34,211.81 225.49,212.76 224.25,213.57C222.97,214.41 222.00,216.06 222.00,217.41C222.00,219.76 222.07,219.77 230.75,219.26zM180.07,212.00C186.86,212.00 188.55,211.59 194.87,208.43C198.79,206.47 202.00,204.27 202.00,203.54C202.00,202.81 201.29,201.94 200.42,201.61C199.55,201.27 195.16,201.00 190.67,201.01C184.15,201.02 181.45,201.51 177.33,203.43C174.49,204.75 171.69,206.70 171.13,207.76C170.39,209.13 170.43,210.03 171.25,210.85C171.92,211.52 175.61,212.00 180.07,212.00zM218.68,210.96C221.88,210.93 226.45,210.54 228.83,210.08C231.21,209.62 233.67,208.73 234.29,208.11C235.12,207.28 234.98,206.55 233.74,205.31C232.68,204.25 229.94,203.49 226.28,203.25C221.93,202.97 219.64,203.35 217.00,204.80C215.01,205.89 213.36,207.65 213.18,208.86C212.88,210.84 213.29,211.00 218.68,210.96zM221.50,200.63C228.21,200.51 228.50,200.40 228.50,198.07C228.50,196.23 227.78,195.44 225.50,194.80C223.85,194.34 219.57,193.89 216.00,193.81C212.43,193.72 208.49,194.20 207.25,194.86C206.01,195.53 205.00,196.72 205.00,197.52C205.00,198.31 206.01,199.18 207.25,199.45C208.49,199.72 210.62,200.13 212.00,200.35C213.38,200.58 217.65,200.71 221.50,200.63zM248.71,199.62C248.45,199.89 247.05,197.74 245.62,194.86C243.48,190.57 243.00,188.20 243.00,181.96C243.00,177.75 243.89,170.07 244.98,164.90C246.08,159.73 246.97,154.38 246.97,153.00C246.98,151.62 245.89,148.16 244.56,145.31C243.23,142.45 240.20,137.99 237.82,135.40C235.44,132.80 230.35,128.36 226.50,125.51C222.65,122.67 216.80,118.78 213.50,116.86C210.20,114.94 203.68,111.74 199.00,109.75C194.32,107.75 186.53,104.97 181.67,103.57C176.81,102.16 167.36,99.89 160.67,98.51C153.98,97.13 146.25,95.37 143.50,94.59C139.59,93.49 139.12,93.16 141.33,93.09C142.88,93.04 152.04,94.60 161.67,96.55C171.30,98.50 183.78,101.60 189.41,103.45C195.04,105.29 203.44,108.70 208.08,111.03C212.71,113.35 219.48,117.17 223.12,119.52C226.76,121.87 233.00,126.87 236.98,130.62C240.96,134.37 245.51,139.71 247.10,142.47C248.97,145.73 249.98,148.91 249.97,151.50C249.97,153.70 249.31,159.10 248.52,163.50C247.72,167.90 247.05,175.42 247.03,180.20C247.02,184.99 247.49,191.20 248.10,194.02C248.70,196.83 248.98,199.36 248.71,199.62zM168.50,196.56C176.08,196.33 181.21,195.63 185.00,194.30C189.10,192.86 190.50,191.88 190.50,190.43C190.50,188.62 189.36,188.45 172.38,187.72C156.24,187.03 153.73,187.13 149.46,188.72C146.82,189.70 144.49,191.03 144.27,191.68C144.06,192.33 144.86,193.39 146.06,194.03C147.26,194.68 150.33,195.58 152.87,196.05C155.42,196.51 162.45,196.75 168.50,196.56zM414.99,196.75C414.17,196.90 410.75,195.72 407.40,194.13C401.30,191.23 401.30,191.23 400.60,183.58C400.22,179.33 398.10,170.08 395.84,162.72C393.59,155.45 390.02,146.12 387.89,142.00C385.76,137.88 381.09,131.12 377.51,127.00C373.93,122.88 371.01,119.16 371.00,118.75C371.00,118.34 371.38,118.00 371.84,118.00C372.31,118.00 375.31,118.90 378.51,120.00C381.72,121.11 386.20,123.10 388.48,124.43C390.75,125.77 394.50,128.69 396.81,130.93C399.11,133.17 401.00,135.93 401.00,137.07C401.00,138.74 400.57,139.01 398.75,138.49C397.51,138.13 395.71,137.62 394.75,137.35C393.62,137.04 393.00,137.42 393.00,138.42C393.00,139.27 396.33,142.71 400.41,146.05C404.48,149.40 408.28,153.34 408.86,154.82C409.44,156.29 410.04,158.40 410.21,159.50C410.47,161.28 410.02,161.46 406.15,161.17C401.80,160.84 401.80,160.84 405.12,165.67C407.96,169.79 408.51,171.53 408.82,177.50C409.17,184.10 409.42,184.74 413.19,188.64C415.64,191.16 417.05,193.49 416.83,194.62C416.64,195.64 415.81,196.60 414.99,196.75zM218.17,190.87C220.74,190.94 223.55,190.73 224.42,190.39C225.29,190.06 226.00,188.99 226.00,188.02C226.00,187.04 225.44,185.79 224.75,185.23C224.06,184.68 220.20,183.90 216.16,183.50C211.81,183.07 209.19,182.41 209.72,181.88C210.22,181.38 213.67,180.13 217.40,179.10C221.13,178.06 224.70,176.69 225.34,176.04C226.22,175.15 226.05,174.53 224.62,173.48C223.58,172.71 220.21,171.57 217.12,170.93C214.03,170.29 210.25,169.13 208.72,168.34C207.19,167.56 206.20,166.48 206.53,165.96C206.85,165.43 211.34,165.00 216.50,165.00C221.66,165.00 226.11,164.62 226.40,164.16C226.68,163.70 226.27,162.41 225.48,161.28C224.59,160.01 221.48,158.55 217.28,157.44C213.55,156.45 208.55,154.82 206.17,153.82C203.78,152.82 200.78,152.00 199.50,152.00C198.21,152.00 196.45,152.27 195.58,152.61C194.71,152.94 194.00,153.69 194.00,154.26C194.00,154.84 195.80,156.85 198.00,158.73C200.20,160.62 202.00,162.51 202.00,162.95C202.00,163.39 200.58,164.03 198.85,164.38C197.11,164.73 195.11,165.49 194.40,166.08C193.70,166.67 193.37,167.81 193.69,168.62C194.00,169.43 196.99,171.48 200.34,173.17C206.42,176.24 206.42,176.24 203.77,178.37C202.31,179.54 200.08,181.25 198.81,182.17C196.92,183.53 196.70,184.17 197.60,185.67C198.32,186.87 201.25,188.06 206.10,189.12C210.17,190.02 215.60,190.80 218.17,190.87zM163.00,180.89C166.57,180.93 172.65,180.30 176.50,179.49C180.35,178.68 184.75,177.50 186.29,176.87C187.82,176.24 188.91,175.23 188.71,174.61C188.49,173.96 185.28,173.40 180.92,173.26C176.84,173.13 168.48,172.58 162.35,172.05C156.22,171.53 147.67,170.21 143.35,169.13C139.03,168.05 131.33,166.61 126.23,165.94C121.13,165.26 116.63,165.04 116.23,165.44C115.83,165.84 116.40,166.85 117.50,167.69C118.60,168.54 122.75,170.79 126.73,172.71C131.19,174.87 138.27,177.08 145.23,178.51C151.43,179.78 159.43,180.85 163.00,180.89zM287.43,179.00C288.80,179.00 291.45,177.67 293.31,176.03C295.17,174.40 299.57,171.32 303.09,169.17C308.09,166.13 309.50,164.75 309.50,162.89C309.50,160.98 308.98,160.50 306.89,160.50C304.96,160.50 301.75,162.91 294.60,169.75C286.27,177.71 285.27,179.00 287.43,179.00zM156.00,164.94C165.07,164.93 174.45,164.54 176.83,164.08C179.21,163.62 181.66,162.74 182.28,162.12C182.98,161.42 183.05,160.67 182.45,160.10C181.93,159.61 170.29,159.05 156.59,158.85C139.76,158.62 131.57,158.84 131.32,159.55C131.13,160.13 132.89,161.59 135.23,162.79C139.12,164.78 140.97,164.97 156.00,164.94zM292.13,158.50C290.83,158.89 289.94,158.83 290.16,158.35C290.38,157.88 291.18,156.26 291.94,154.75C292.70,153.24 294.09,152.00 295.04,152.00C295.98,152.00 297.29,152.64 297.94,153.43C298.90,154.58 298.68,155.15 296.82,156.33C295.54,157.13 293.43,158.11 292.13,158.50zM221.50,152.82C228.50,152.93 228.50,152.93 226.16,150.98C224.87,149.91 220.82,148.13 217.16,147.04C213.50,145.95 208.03,143.51 205.00,141.62C201.97,139.73 197.54,137.67 195.15,137.03C192.75,136.39 190.16,136.11 189.40,136.40C188.63,136.70 188.00,137.38 188.00,137.93C188.00,138.48 189.00,139.85 190.22,140.99C191.45,142.13 195.83,144.96 199.97,147.28C204.11,149.60 209.07,151.77 211.00,152.11C212.93,152.44 217.65,152.77 221.50,152.82zM182.92,151.98C183.24,151.98 184.17,151.55 184.99,151.03C185.98,150.40 186.15,149.75 185.49,149.09C184.95,148.55 181.88,147.42 178.68,146.59C175.48,145.75 168.05,144.59 162.18,144.00C156.31,143.42 147.82,142.52 143.32,142.01C138.83,141.51 129.85,139.90 123.38,138.45C116.90,137.00 105.35,133.80 97.70,131.34C90.06,128.87 83.58,127.09 83.30,127.37C83.02,127.64 83.47,128.83 84.28,129.99C85.10,131.16 87.28,133.27 89.14,134.68C90.99,136.09 96.69,139.25 101.80,141.71C107.39,144.39 114.78,146.97 120.30,148.16C127.85,149.78 134.13,150.18 155.26,150.41C169.43,150.57 181.32,150.99 181.68,151.35C182.04,151.71 182.60,151.99 182.92,151.98zM319.10,143.94C317.12,143.91 313.96,143.35 312.08,142.69C310.19,142.04 308.44,140.87 308.19,140.09C307.86,139.09 308.24,138.88 309.52,139.37C310.50,139.74 313.76,139.34 316.76,138.47C319.75,137.60 323.29,135.81 324.60,134.49C325.92,133.17 327.00,131.44 327.00,130.65C327.00,129.86 326.36,128.97 325.59,128.67C324.79,128.37 322.62,129.64 320.64,131.56C318.45,133.69 316.11,135.00 314.50,135.00C313.07,135.00 310.53,134.29 308.85,133.42C305.98,131.94 305.72,131.96 304.43,133.80C303.67,134.88 301.91,135.98 300.50,136.24C299.10,136.51 297.75,136.41 297.51,136.01C297.26,135.62 297.95,133.56 299.03,131.44C300.11,129.31 301.00,126.55 301.00,125.29C301.00,124.03 301.87,122.13 302.94,121.06C304.01,119.99 306.59,118.79 308.68,118.40C310.76,118.01 315.74,118.24 319.73,118.91C323.72,119.58 327.46,119.83 328.04,119.47C328.77,119.03 328.73,118.38 327.92,117.41C326.91,116.19 327.21,116.18 330.12,117.40C332.72,118.49 333.57,119.49 333.80,121.74C333.98,123.48 333.47,125.19 332.55,125.96C331.54,126.80 331.00,128.93 331.00,132.08C331.00,134.73 330.49,138.03 329.86,139.40C329.24,140.78 327.37,142.37 325.71,142.95C324.06,143.53 321.08,143.97 319.10,143.94zM219.75,141.95C220.99,141.98 222.00,141.53 222.00,140.95C222.00,140.38 220.87,138.78 219.49,137.40C218.12,136.02 215.08,134.03 212.74,132.97C210.41,131.91 207.29,131.03 205.82,131.02C204.35,131.01 202.42,131.72 201.54,132.61C200.30,133.84 200.20,134.53 201.08,135.60C201.72,136.37 205.67,138.10 209.87,139.45C214.07,140.80 218.51,141.93 219.75,141.95zM206.25,127.96C207.21,127.98 208.00,127.55 208.00,127.01C208.00,126.46 206.09,124.60 203.75,122.87C201.41,121.15 196.35,118.26 192.50,116.46C188.65,114.66 179.25,111.35 171.62,109.10C163.98,106.85 147.56,102.94 135.12,100.40C122.25,97.78 106.68,93.86 99.00,91.30C91.58,88.83 79.45,83.71 72.06,79.93C64.67,76.14 58.51,73.16 58.37,73.29C58.24,73.43 58.83,75.00 59.69,76.78C60.55,78.55 64.02,82.59 67.40,85.75C70.78,88.91 76.68,93.74 80.52,96.49C84.36,99.23 92.94,104.23 99.60,107.60C106.25,110.98 115.25,114.90 119.60,116.32C123.94,117.75 133.63,120.51 141.12,122.46C148.61,124.41 155.47,126.00 156.37,126.00C157.27,126.00 158.00,125.56 158.00,125.02C158.00,124.49 156.96,123.36 155.68,122.53C154.40,121.69 146.87,118.70 138.93,115.88C130.99,113.06 123.26,109.88 121.75,108.81C120.24,107.74 119.00,106.49 119.00,106.03C119.00,105.57 121.94,105.36 125.53,105.55C129.12,105.75 137.78,107.11 144.78,108.57C151.77,110.04 161.78,112.52 167.00,114.09C172.22,115.67 182.80,119.42 190.50,122.44C198.20,125.46 205.29,127.95 206.25,127.96zM306.80,125.00C307.24,125.00 308.10,124.50 308.71,123.89C309.33,123.27 311.67,122.95 313.91,123.16C316.16,123.38 318.00,123.29 318.00,122.98C318.00,122.66 317.46,121.86 316.80,121.20C316.14,120.54 313.98,120.00 312.00,120.00C310.02,120.00 307.86,120.54 307.20,121.20C306.54,121.86 306.00,122.98 306.00,123.70C306.00,124.42 306.36,125.00 306.80,125.00zM333.30,104.80C334.29,104.29 335.56,102.67 336.13,101.19C336.71,99.71 336.97,96.67 336.73,94.42C336.47,92.06 334.77,87.98 332.67,84.70C330.34,81.06 328.16,78.83 326.52,78.41C325.10,78.06 323.36,78.29 322.59,78.93C321.82,79.56 320.91,81.21 320.57,82.58C320.23,83.95 320.42,86.84 321.00,89.00C321.58,91.15 322.49,93.19 323.03,93.52C323.57,93.85 324.44,92.97 324.98,91.56C325.67,89.74 326.68,89.00 328.50,89.00C330.32,89.00 331.33,89.74 332.02,91.57C332.56,92.98 333.00,96.14 333.00,98.60C333.00,101.79 332.54,103.24 331.38,103.68C330.49,104.02 328.61,103.90 327.20,103.40C325.75,102.89 323.48,100.53 322.00,98.00C320.55,95.52 318.72,93.50 317.93,93.50C317.15,93.50 316.36,94.46 316.20,95.63C316.03,96.80 316.94,98.98 318.22,100.47C319.79,102.30 322.35,103.60 326.03,104.45C329.53,105.26 332.15,105.39 333.30,104.80zM303.61,94.00C304.41,94.00 305.31,93.37 305.60,92.59C305.90,91.81 305.38,89.68 304.46,87.84C303.53,86.00 301.84,83.49 300.71,82.25C299.58,81.01 297.88,80.00 296.94,80.00C296.00,80.00 294.99,80.95 294.68,82.11C294.38,83.27 294.51,85.22 294.98,86.45C295.45,87.67 297.25,89.87 298.99,91.34C300.73,92.80 302.81,94.00 303.61,94.00z"/></svg>
